Jessicka Rabid (2010)
Genres: Horror
Runtime: 82 mins       
Plot Outline:
There's Something Wrong With Jessicka

Director: Matthew Reel,

Cast:
• Jason Foster as Billy
• Trent Haaga as Marley Hoffman
• Elske McCain as Jessicka
• Cisiany Olivar as Abby Hoffman
• Keith Marcellus Parham as Dick Black
• Faith Preston as Denise
• Matthew Reel as Porn Director
• Jeff Sisson as Brad Hoffman
• Mike Wyatt as Mike
Description	Jessicka.Rabid.2010.DVDRiP.XviD-SiC

IMDB Link: 
http://www.imdb.com/title/tt1753975/

Description: There's Something Wrong With Jessicka


General
Complete name: Jessicka.Rabid.2010.DVDRiP.XviD-SiC.avi
Format : AVI
Format/Info: Audio Video Interleave
File size: 1.37 GiB
Duration : 1h 19mn
Overall bit rate : 2 476 Kbps

Video
ID : 0
Format : MPEG-4 Visual
Format profile : Simple@L3
Format settings, BVOP: 2
Format settings, QPel: No
Format settings, GMC : No warppoints
Format settings, Matrix: Default (H.263)
Muxing mode: Packed bitstream
Codec ID : XVID
Codec ID/Hint: XviD
Duration : 1h 19mn
Bit rate : 2 212 Kbps
Width: 720 pixels
Height : 352 pixels
Display aspect ratio : 2.045
Frame rate : 23.976 fps
Color space: YUV
Chroma subsampling : 4:2:0
Bit depth: 8 bits
Scan type: Progressive
Compression mode : Lossy
Bits/(Pixel*Frame) : 0.364
Stream size: 1.22 GiB (89%)
Writing library: XviD 1.0.3 (UTC 2004-12-20)

Audio
ID : 1
Format : AC-3
Format/Info: Audio Coding 3
Mode extension : CM (complete main)
Codec ID : 2000
Duration : 1h 19mn
Bit rate mode: Constant
Bit rate : 256 Kbps
Channel(s) : 2 channels
Channel positions: Front: L R
Sampling rate: 48.0 KHz
Bit depth: 16 bits
Compression mode : Lossy
Stream size: 145 MiB (10%)
Alignment: Aligned on interleaves
Interleave, duration : 64 ms (1.53 video frames)
Interleave, preload duration : 192 ms
Title: VTS_04_1 T80 2_0ch 192Kbps DELAY 0ms_new